<?xml version="1.0" standalone="no"?>
<!DOCTYPE svg PUBLIC "-//W3C//DTD SVG 1.1//EN" "http://www.w3.org/Graphics/SVG/1.1/DTD/svg11.dtd" >
<svg xmlns="http://www.w3.org/2000/svg">
<metadata>Generated by IcoMoon</metadata>
<defs>
<font id="icomoon" horiz-adv-x="1024">
<font-face units-per-em="1024" ascent="960" descent="-64" />
<missing-glyph horiz-adv-x="1024" />
<glyph unicode="&#x20;" horiz-adv-x="512" d="" />
<glyph unicode="&#xe900;" d="M0 960c337.92 0 675.84 0 1024 0 0-337.92 0-675.84 0-1024-337.92 0-675.84 0-1024 0 0 337.92 0 675.84 0 1024z" />
<glyph unicode="&#xe901;" d="M286.72 407.040c2.703 0 5.407 0 8.192 0-0.676-3.379-1.352-6.758-2.048-10.24 29.061 0 58.122 0 88.064 0-1.014 5.069-1.014 5.069-2.048 10.24 16.896 0 33.792 0 51.2 0 1.423-4.604 2.846-9.208 4.312-13.952 6.017-19.332 12.423-38.531 18.856-57.728 1.138-3.403 2.275-6.805 3.412-10.208 2.741-8.204 5.489-16.406 8.236-24.608 13.517-0.676 27.034-1.352 40.96-2.048 0-2.703 0-5.407 0-8.192-45.957 0-91.914 0-139.264 0 0 2.703 0 5.407 0 8.192 23.316 1.014 23.316 1.014 47.104 2.048-9.462 28.385-18.924 56.771-28.672 86.016-31.764 0-63.529 0-96.256 0-3.379-10.813-6.758-21.627-10.24-32.768-3.26-9.909-6.536-19.808-9.856-29.696-2.83-8.448-5.66-16.896-8.576-25.6 18.248 0 36.495 0 55.296 0 0-2.703 0-5.407 0-8.192-35.144 0-70.287 0-106.496 0 0 2.703 0 5.407 0 8.192 14.193 0 28.385 0 43.008 0 1.352 6.083 2.703 12.165 4.096 18.432 0.979 3.204 2.020 6.391 3.176 9.536 0.581 1.611 1.163 3.222 1.762 4.882 0.609 1.662 1.218 3.325 1.846 5.038 5.314 14.789 10.158 29.61 14.338 44.76 2.536 9.041 5.753 17.356 9.598 25.896z" />
<glyph unicode="&#xe902;" d="M569.344 409.088c14.868 0 29.737 0 45.056 0 0-34.468 0-68.936 0-104.448 14.868 0.169 29.737 0.338 45.056 0.512 6.993 0.049 6.993 0.049 14.128 0.098 3.739 0.060 7.477 0.123 11.216 0.19 1.906 0.002 3.812 0.005 5.776 0.007 15.605 0.339 27.323 4.226 38.768 15.065 15.277 19.428 20.618 48.649 26.368 72.192 2.028-0.676 4.055-1.352 6.144-2.048 0.203-12.1 0.351-24.199 0.45-36.3 0.041-4.116 0.097-8.232 0.168-12.348 0.099-5.918 0.146-11.834 0.182-17.752 0.042-1.839 0.085-3.678 0.128-5.573 0.001-2.582 0.001-2.582 0.002-5.217 0.018-1.51 0.036-3.020 0.055-4.575-1.538-6.637-3.474-8.622-9.177-12.443-7.139-1.192-14.2-1.033-21.422-0.93-3.268-0.002-3.268-0.002-6.602-0.004-7.204 0.006-14.405 0.069-21.608 0.134-4.993 0.015-9.986 0.027-14.98 0.035-13.145 0.031-26.288 0.112-39.433 0.202-13.412 0.084-26.824 0.121-40.236 0.162-26.318 0.088-52.635 0.226-78.952 0.4 0 2.028 0 4.055 0 6.144 12.841 0 25.682 0 38.912 0 0 35.144 0 70.287 0 106.496z" />
<glyph unicode="&#xe903;" d="M528.384 609.792c27.932 0.142 55.863 0.251 83.795 0.318 12.969 0.032 25.938 0.076 38.907 0.145 12.509 0.067 25.017 0.103 37.526 0.119 4.779 0.011 9.559 0.034 14.338 0.067 6.679 0.044 13.357 0.051 20.037 0.048 1.989 0.022 3.977 0.044 6.026 0.067 1.818-0.008 3.636-0.017 5.509-0.026 1.58 0.006 3.16 0.011 4.788 0.017 5.316-0.977 7.105-2.553 10.258-6.9 0.536-6.171 0.714-11.909 0.6-18.072-0.009-1.764-0.017-3.528-0.026-5.346-0.034-5.635-0.112-11.268-0.19-16.902-0.031-3.82-0.059-7.64-0.084-11.46-0.068-9.365-0.174-18.728-0.3-28.092-2.703 0-5.407 0-8.192 0-0.337 2.562-0.337 2.562-0.68 5.176-3.255 23.104-7.597 46.022-25.944 62.152-11.881 8.416-21.589 9.109-35.752 9.296-2.461 0.054-2.461 0.054-4.971 0.11-6.095 0.129-12.19 0.224-18.285 0.322-20.465 0.38-20.465 0.38-41.344 0.768 0-37.171 0-74.342 0-112.64-14.868 0-29.737 0-45.056 0 0 37.847 0 75.694 0 114.688-13.517 0-27.034 0-40.96 0 0 2.028 0 4.055 0 6.144z" />
<glyph unicode="&#xe904;" d="M354.304 613.888c3.84-0.398 3.84-0.398 8.192-2.048 2.304-4.322 2.304-4.322 4.096-10.016 1.006-3.111 1.006-3.111 2.032-6.286 1.021-3.336 1.021-3.336 2.064-6.738 0.722-2.262 1.444-4.524 2.187-6.855 2.037-6.409 4.030-12.829 6.005-19.257 0.784-2.532 1.568-5.064 2.376-7.672 1.217-3.967 2.423-7.938 3.616-11.912 3.745-11.985 7.807-23.868 11.856-35.753 0.604-1.789 1.209-3.579 1.832-5.423 0.548-1.611 1.097-3.222 1.662-4.881 1.186-3.991 1.186-3.991 1.186-8.087-16.896 0-33.792 0-51.2 0-4.055 12.841-8.11 25.682-12.288 38.912-3.409-5.113-5.012-8.242-6.736-13.912-0.449-1.459-0.898-2.917-1.36-4.42-0.454-1.511-0.908-3.023-1.376-4.58-0.47-1.535-0.94-3.070-1.424-4.652-1.156-3.78-2.299-7.564-3.44-11.348-3.379 0-6.758 0-10.24 0 0.768 2.257 1.536 4.514 2.328 6.84 5.203 15.391 10.268 30.775 14.696 46.408 6.9 24.236 15.556 47.926 23.936 71.68z" />
<glyph unicode="&#xe905;" d="M405.504 464.384c14.462 0.98 14.462 0.98 22.656-3.2 3.968-4.992 3.968-4.992 4.096-12.416-2.176-6.912-2.176-6.912-5.376-9.856-7.245-1.672-13.945-1.4-21.376-1.152 0 8.786 0 17.572 0 26.624z" />
<glyph unicode="&#xe906;" d="M344.064 464.384c2.028 0 4.055 0 6.144 0 0-8.786 0-17.572 0-26.624-2.028 0-4.055 0-6.144 0-0.676 3.379-1.352 6.758-2.048 10.24-1.352-2.703-2.703-5.407-4.096-8.192-6.144 2.048-6.144 2.048-8.576 6.272-0.549 1.309-1.098 2.619-1.664 3.968-0.676-4.055-1.352-8.11-2.048-12.288-1.352 0-2.703 0-4.096 0 0 8.11 0 16.22 0 24.576 2.028 0 4.055 0 6.144 0 2.148-3.351 4.196-6.768 6.144-10.24 1.352-0.676 2.703-1.352 4.096-2.048 0.634 1.605 1.267 3.21 1.92 4.864 2.176 5.376 2.176 5.376 4.224 9.472z" />
<glyph unicode="&#xe907;" d="M710.656 464.384c9.401-2.35 10.93-4.691 16.384-12.288 0.676 4.055 1.352 8.11 2.048 12.288 2.028 0 4.055 0 6.144 0 0-8.786 0-17.572 0-26.624-9.401 2.35-10.93 4.691-16.384 12.288-0.676-4.055-1.352-8.11-2.048-12.288-2.028 0-4.055 0-6.144 0 0 8.786 0 17.572 0 26.624z" />
<glyph unicode="&#xe908;" d="M622.592 464.384c2.028 0 4.055 0 6.144 0 2.703-4.731 5.407-9.462 8.192-14.336 1.225 2.028 2.45 4.055 3.712 6.144 2.218 3.041 2.218 3.041 4.48 6.144 2.028 0 4.055 0 6.144 0 0-8.11 0-16.22 0-24.576-1.352 0-2.703 0-4.096 0-0.676 4.055-1.352 8.11-2.048 12.288-0.929-1.69-1.859-3.379-2.816-5.12-1.098-1.69-2.196-3.379-3.328-5.12-1.352 0-2.703 0-4.096 0-1.352 2.703-2.703 5.407-4.096 8.192-0.676-3.379-1.352-6.758-2.048-10.24-2.028 0-4.055 0-6.144 0 0 8.786 0 17.572 0 26.624z" />
<glyph unicode="&#xe909;" d="M278.528 464.384c2.028 0 4.055 0 6.144 0 0-3.379 0-6.758 0-10.24 3.379 0 6.758 0 10.24 0 0 3.379 0 6.758 0 10.24 2.703 0 5.407 0 8.192 0 0-8.786 0-17.572 0-26.624-2.028 0-4.055 0-6.144 0 0 3.379 0 6.758 0 10.24-4.055 0-8.11 0-12.288 0 0-3.379 0-6.758 0-10.24-2.028 0-4.055 0-6.144 0 0 8.786 0 17.572 0 26.624z" />
<glyph unicode="&#xe90a;" d="M471.040 464.384c6.758 0 13.517 0 20.48 0 0-2.028 0-4.055 0-6.144-4.055 0-8.11 0-12.288 0 0-1.352 0-2.703 0-4.096 3.379 0 6.758 0 10.24 0 0-2.028 0-4.055 0-6.144-4.055 0-8.11 0-12.288 0 0-2.028 0-4.055 0-6.144 4.731 0 9.462 0 14.336 0 0-1.352 0-2.703 0-4.096-6.758 0-13.517 0-20.48 0 0 8.786 0 17.572 0 26.624z" />
<glyph unicode="&#xe90b;" d="M368.64 464.384c6.758 0 13.517 0 20.48 0 0-2.028 0-4.055 0-6.144-4.731 0-9.462 0-14.336 0 0-1.352 0-2.703 0-4.096 4.055 0 8.11 0 12.288 0 0-2.028 0-4.055 0-6.144-4.055 0-8.11 0-12.288 0 0-2.028 0-4.055 0-6.144 4.731 0 9.462 0 14.336 0 0-1.352 0-2.703 0-4.096-6.758 0-13.517 0-20.48 0 0 8.786 0 17.572 0 26.624z" />
<glyph unicode="&#xe90c;" d="M677.888 464.384c3.744-0.248 3.744-0.248 8.192-2.048 3.040-5.576 3.040-5.576 5.632-12.416 0.876-2.262 1.753-4.525 2.656-6.856 0.644-1.75 1.288-3.501 1.952-5.304-2.703 0.676-5.407 1.352-8.192 2.048 0 1.352 0 2.703 0 4.096-6.084-0.701-6.084-0.701-12.288-2.048-0.676-1.352-1.352-2.703-2.048-4.096-2.028 0-4.055 0-6.144 0 2.904 9.159 6.376 17.841 10.24 26.624z" />
<glyph unicode="&#xe90d;" d="M589.824 464.384c3.808-0.464 3.808-0.464 8.192-2.048 2.592-4.016 2.592-4.016 4.608-8.96 0.686-1.621 1.373-3.242 2.080-4.912 1.504-4.56 1.504-4.56 1.504-10.704-2.028 0-4.055 0-6.144 0 0 2.028 0 4.055 0 6.144-6.084-0.701-6.084-0.701-12.288-2.048-0.676-1.352-1.352-2.703-2.048-4.096-2.028 0-4.055 0-6.144 0 0.931 2.904 1.871 5.805 2.816 8.704 0.784 2.424 0.784 2.424 1.584 4.896 1.645 4.558 3.581 8.742 5.84 13.024z" />
<glyph unicode="&#xe90e;" d="M245.76 464.384c3.808-0.464 3.808-0.464 8.192-2.048 2.592-4.016 2.592-4.016 4.608-8.96 0.686-1.621 1.373-3.242 2.080-4.912 1.504-4.56 1.504-4.56 1.504-10.704-2.028 0-4.055 0-6.144 0 0 2.028 0 4.055 0 6.144-6.084-0.701-6.084-0.701-12.288-2.048-0.676-1.352-1.352-2.703-2.048-4.096-2.028 0-4.055 0-6.144 0 0.931 2.904 1.871 5.805 2.816 8.704 0.784 2.424 0.784 2.424 1.584 4.896 1.645 4.558 3.581 8.742 5.84 13.024z" />
<glyph unicode="&#xe90f;" d="M382.976 251.392c5.888 0.256 5.888 0.256 12.288 0 4.096-4.096 4.096-4.096 4.352-9.472-0.084-1.605-0.169-3.21-0.256-4.864-5.548-2.774-10.259-2.181-16.384-2.048 0 5.407 0 10.813 0 16.384z" />
<glyph unicode="&#xe910;" d="M770.048 464.384c2.028 0 4.055 0 6.144 0-0.911-1.727-0.911-1.727-1.84-3.488-2.275-4.744-3.965-9.429-5.584-14.432-0.533-1.637-1.067-3.274-1.616-4.96-0.396-1.236-0.792-2.471-1.2-3.744-2.028 0-4.055 0-6.144 0-2.731 8.192-5.461 16.384-8.192 24.576 3.84-0.64 3.84-0.64 8.192-2.048 2.028-3.041 2.028-3.041 4.096-6.144 0.887 1.69 1.774 3.379 2.688 5.12 1.14 1.69 2.281 3.379 3.456 5.12z" />
<glyph unicode="&#xe911;" d="M561.152 464.384c2.028 0 4.055 0 6.144 0-0.911-1.727-0.911-1.727-1.84-3.488-2.275-4.744-3.965-9.429-5.584-14.432-0.533-1.637-1.067-3.274-1.616-4.96-0.396-1.236-0.792-2.471-1.2-3.744-2.028 0-4.055 0-6.144 0-2.731 8.192-5.461 16.384-8.192 24.576 3.84-0.64 3.84-0.64 8.192-2.048 2.028-3.041 2.028-3.041 4.096-6.144 0.887 1.69 1.774 3.379 2.688 5.12 1.14 1.69 2.281 3.379 3.456 5.12z" />
<glyph unicode="&#xe912;" d="M552.064 251.52c2.471-0.063 2.471-0.063 4.992-0.128 2.304-4.736 2.304-4.736 4.096-10.24-2.028-3.041-2.028-3.041-4.096-6.144-5.12-0.64-5.12-0.64-10.24 0-1.352 1.352-2.703 2.703-4.096 4.096 1.491 12.224 1.491 12.224 9.344 12.416z" />
<glyph unicode="&#xe913;" d="M411.648 458.24c4.864 0.256 4.864 0.256 10.24 0 1.352-1.352 2.703-2.703 4.096-4.096-1.138-9.33-1.138-9.33-4.096-12.288-3.412-0.083-6.828-0.087-10.24 0 0 5.407 0 10.813 0 16.384z" />
<glyph unicode="&#xe914;" d="M686.080 513.536c2.028 0 4.055 0 6.144 0 0-8.11 0-16.22 0-24.576-3.379 0-6.758 0-10.24 0 0.29 2.945 0.591 5.889 0.896 8.832 0.166 1.639 0.333 3.279 0.504 4.968 0.648 4.632 0.648 4.632 2.696 10.776z" />
<glyph unicode="&#xe915;" d="M643.072 251.392c4.055 0 8.11 0 12.288 0 1.28-3.84 1.28-3.84 2.048-8.192-1.352-1.352-2.703-2.703-4.096-4.096-2.028 0-4.055 0-6.144 0 0-1.352 0-2.703 0-4.096-1.352 0-2.703 0-4.096 0 0 5.407 0 10.813 0 16.384z" />
<glyph unicode="&#xe916;" d="M321.536 462.336c2.028 0 4.055 0 6.144 0 2.703-5.407 5.407-10.813 8.192-16.384-2.028 0-4.055 0-6.144 0-0.676 1.352-1.352 2.703-2.048 4.096-0.676-4.055-1.352-8.11-2.048-12.288-1.352 0-2.703 0-4.096 0 0 8.11 0 16.22 0 24.576z" />
<glyph unicode="&#xe917;" d="M579.584 251.392c3.379 0 6.758 0 10.24 0 1.352-2.703 2.703-5.407 4.096-8.192-1.352-1.352-2.703-2.703-4.096-4.096-2.703 0-5.407 0-8.192 0-0.676-1.352-1.352-2.703-2.048-4.096 0 5.407 0 10.813 0 16.384z" />
<glyph unicode="&#xe918;" d="M509.952 462.336c1.352 0 2.703 0 4.096 0 0-6.758 0-13.517 0-20.48 4.731 0 9.462 0 14.336 0 0-1.352 0-2.703 0-4.096-6.083 0-12.165 0-18.432 0 0 8.11 0 16.22 0 24.576z" />
<glyph unicode="&#xe919;" d="M407.552 462.336c4.055 0 8.11 0 12.288 0-2.703-0.676-5.407-1.352-8.192-2.048 0-6.083 0-12.165 0-18.432 2.703 0 5.407 0 8.192 0 0-1.352 0-2.703 0-4.096-4.055 0-8.11 0-12.288 0 0 8.11 0 16.22 0 24.576z" />
<glyph unicode="&#xe91a;" d="M677.888 464.384c4.055-1.014 4.055-1.014 8.192-2.048 0.676-4.055 1.352-8.11 2.048-12.288-3.379-0.676-6.758-1.352-10.24-2.048-2.304 11.776-2.304 11.776 0 16.384z" />
<glyph unicode="&#xe91b;" d="M645.12 462.336c2.028 0 4.055 0 6.144 0 0-8.11 0-16.22 0-24.576-1.352 0-2.703 0-4.096 0 0 4.731 0 9.462 0 14.336-1.352 0-2.703 0-4.096 0 0.676 3.379 1.352 6.758 2.048 10.24z" />
<glyph unicode="&#xe91c;" d="M589.824 464.384c4.055-1.014 4.055-1.014 8.192-2.048 0.676-2.703 1.352-5.407 2.048-8.192-1.352 0-2.703 0-4.096 0 0-2.028 0-4.055 0-6.144-2.028 0-4.055 0-6.144 0-2.304 11.776-2.304 11.776 0 16.384z" />
<glyph unicode="&#xe91d;" d="M245.76 464.384c4.055-1.014 4.055-1.014 8.192-2.048 0.676-2.703 1.352-5.407 2.048-8.192-1.352 0-2.703 0-4.096 0 0-2.028 0-4.055 0-6.144-2.028 0-4.055 0-6.144 0-2.304 11.776-2.304 11.776 0 16.384z" />
<glyph unicode="&#xe91e;" d="M688.128 454.144c5.044-5.044 6.139-9.639 8.192-16.384-2.703 0.676-5.407 1.352-8.192 2.048 0 1.352 0 2.703 0 4.096-3.379 0.676-6.758 1.352-10.24 2.048 1.309 0.591 2.619 1.183 3.968 1.792 4.535 1.952 4.535 1.952 6.272 6.4z" />
<glyph unicode="&#xe91f;" d="M296.96 462.336c1.352 0 2.703 0 4.096 0 0-8.11 0-16.22 0-24.576-1.352 0-2.703 0-4.096 0-1.56 8.84-2.377 15.86 0 24.576z" />
<glyph unicode="&#xe920;" d="M585.728 450.048c0.676-1.352 1.352-2.703 2.048-4.096 4.146-1.336 4.146-1.336 8.192-2.048-1.309-0.253-2.619-0.507-3.968-0.768-1.394-0.422-2.788-0.845-4.224-1.28-0.676-1.352-1.352-2.703-2.048-4.096-2.028 0-4.055 0-6.144 0 3.84 9.984 3.84 9.984 6.144 12.288z" />
<glyph unicode="&#xe921;" d="M241.664 450.048c0.676-1.352 1.352-2.703 2.048-4.096 4.146-1.336 4.146-1.336 8.192-2.048-1.309-0.253-2.619-0.507-3.968-0.768-1.394-0.422-2.788-0.845-4.224-1.28-0.676-1.352-1.352-2.703-2.048-4.096-2.028 0-4.055 0-6.144 0 3.84 9.984 3.84 9.984 6.144 12.288z" />
<glyph unicode="&#xe922;" d="M589.824 458.24c0.676-2.028 1.352-4.055 2.048-6.144-0.676-1.352-1.352-2.703-2.048-4.096 2.703 0.676 5.407 1.352 8.192 2.048 0-1.352 0-2.703 0-4.096-9.728-0.256-9.728-0.256-14.336 2.048 0.768 3.968 0.768 3.968 2.048 8.192 1.352 0.676 2.703 1.352 4.096 2.048z" />
<glyph unicode="&#xe923;" d="M245.76 458.24c0.676-2.028 1.352-4.055 2.048-6.144-0.676-1.352-1.352-2.703-2.048-4.096 2.703 0.676 5.407 1.352 8.192 2.048 0-1.352 0-2.703 0-4.096-9.728-0.256-9.728-0.256-14.336 2.048 0.768 3.968 0.768 3.968 2.048 8.192 1.352 0.676 2.703 1.352 4.096 2.048z" />
<glyph unicode="&#xe924;" d="M337.92 454.144c1.352-2.028 2.703-4.055 4.096-6.144-1.352-2.703-2.703-5.407-4.096-8.192-2.028 0.676-4.055 1.352-6.144 2.048 0.676 2.703 1.352 5.407 2.048 8.192 1.352 0 2.703 0 4.096 0 0 1.352 0 2.703 0 4.096z" />
</font>
</defs>
</svg>
